<?xml version="1.0" encoding="UTF-8"?>
<svg id="_Слой_1" data-name="Слой 1" xmlns="http://www.w3.org/2000/svg" xmlns:xlink="http://www.w3.org/1999/xlink" viewBox="0 0 535.72 474.86">
  <defs>
    <style>
      .cls-1 {
        fill: url(#GradientFill_1-3);
      }

      .cls-2 {
        fill: url(#GradientFill_1-2);
      }

      .cls-3 {
        fill: url(#GradientFill_1-5);
      }

      .cls-4 {
        fill: url(#GradientFill_1-6);
      }

      .cls-5 {
        fill: url(#GradientFill_1-4);
      }

      .cls-6 {
        fill: url(#GradientFill_1);
      }

      .cls-7 {
        fill: url(#GradientFill_1-7);
      }
    </style>
    <linearGradient id="GradientFill_1" data-name="GradientFill 1" x1="0" y1="346.72" x2="543.97" y2="346.72" gradientUnits="userSpaceOnUse">
      <stop offset="0" stop-color="#00a98c"/>
      <stop offset="1" stop-color="#302884"/>
    </linearGradient>
    <linearGradient id="GradientFill_1-2" data-name="GradientFill 1" x1="0" y1="261.11" x2="543.97" y2="261.11" xlink:href="#GradientFill_1"/>
    <linearGradient id="GradientFill_1-3" data-name="GradientFill 1" x1="0" y1="175.77" x2="543.97" y2="175.77" gradientTransform="translate(29.15 -8.75) rotate(9.25)" xlink:href="#GradientFill_1"/>
    <linearGradient id="GradientFill_1-4" data-name="GradientFill 1" x1="0" y1="230.91" x2="543.97" y2="230.91" xlink:href="#GradientFill_1"/>
    <linearGradient id="GradientFill_1-5" data-name="GradientFill 1" x1="0" y1="237.43" x2="543.97" y2="237.43" xlink:href="#GradientFill_1"/>
    <linearGradient id="GradientFill_1-6" data-name="GradientFill 1" x1="0" y1="360.25" x2="543.97" y2="360.25" gradientTransform="translate(506.58 176.52) rotate(85.92)" xlink:href="#GradientFill_1"/>
    <linearGradient id="GradientFill_1-7" data-name="GradientFill 1" x1="0" y1="169.75" x2="543.97" y2="169.75" xlink:href="#GradientFill_1"/>
  </defs>
  <path class="cls-6" d="M61.93,334.54c-6.72,0-12.17,5.45-12.17,12.17s5.45,12.17,12.17,12.17,12.17-5.45,12.17-12.17-5.45-12.17-12.17-12.17Z"/>
  <path class="cls-2" d="M80.29,243.49c-9.73,0-17.62,7.89-17.62,17.62s7.89,17.62,17.62,17.62,17.62-7.89,17.62-17.62-7.89-17.62-17.62-17.62Z"/>
  <circle class="cls-1" cx="68.64" cy="175.77" r="11.9" transform="translate(-27.36 13.32) rotate(-9.25)"/>
  <circle class="cls-5" cx="11.9" cy="230.91" r="11.9"/>
  <path class="cls-3" d="M499.38,212.21c-2.39-3.78-4.37-6.89-5.47-8.64,5.25-55.06-11.02-108.17-50.38-148.44C411.53,22.38,366.96,1.79,316.6,.1c-60.55-2.04-114.74,28.84-152.1,74.77-1.26-.32-2.59-.49-3.95-.49-8.91,0-16.13,7.22-16.13,16.13s7.22,16.13,16.13,16.13,16.13-7.22,16.13-16.13c0-1.07-.1-2.11-.3-3.12,55.01-22.18,114.03-24.02,167.71-5.34,0,.04,0,.07,0,.11,0,.25,0,.5,.02,.75-20.5,6.31-39.62,15.1-57.35,26.38-20.64,13.13-39.36,29.61-56.16,49.45-2.1-1-4.45-1.56-6.94-1.56-8.91,0-16.13,7.22-16.13,16.13,0,4.06,1.5,7.77,3.98,10.61-9.69,14.26-18.6,29.86-26.75,46.81-2.33-.79-4.83-1.21-7.43-1.21-12.85,0-23.26,10.42-23.26,23.26s10.42,23.26,23.26,23.26c2.55,0,4.99-.41,7.29-1.17,6.32,13.61,14.16,26.62,23.3,38.85-1.38,2.38-2.17,5.15-2.17,8.1,0,8.94,7.25,16.19,16.19,16.19,2.04,0,3.99-.38,5.79-1.07,11.56,11.93,24.46,22.81,38.41,32.41,19.75,13.59,41.64,24.62,64.88,32.43-21.94,8.85-45.81,14.92-71.3,17.56-3.82,.4-7.71,.22-11.6-.2-1.08-5.9-6.25-10.38-12.46-10.38-7,0-12.67,5.67-12.67,12.67s5.67,12.67,12.67,12.67c3.55,0,6.76-1.46,9.06-3.82l137.12,44.59c.35-20.8,3.65-59.88,31.67-59.9,11.13,0,20.93-.11,29.42-.92,30.81-2.93,44.21-14.02,40.74-56.78-.63-7.72,.3-8.98,5.6-14.33,2.67-2.7,5.08-5.13,5.73-9.66,.35-2.44,.58-3.68-.82-5.63,4.76-3.3,11.54-8.62,12.68-12.88,1.36-5.07-2.39-10.45-6.29-16.04-12.97-18.6,10.13-8.37,26.13-13.17,2.99-.9,5.15-2.29,6.65-4.07,1.72-2.05,2.43-4.41,2.38-7.01-.11-5.1-24.09-42.94-36.33-62.26Zm-39.86-119.45c17.39,28.62,25.4,60.65,24.86,94.05-6.67-11.09-13.84-21.45-21.45-31.1,1.23-2.28,1.93-4.89,1.93-7.67,0-5.77-3.03-10.83-7.58-13.68,1.5-10.23,2.3-20.6,2.39-31.02,.03-3.52-.02-7.05-.16-10.58Zm-62.22,164.89c4.59-4.79,8.95-9.78,13.09-14.96,.9,.2,1.84,.31,2.81,.31,5.64,0,10.44-3.6,12.23-8.62,20.49-3.57,39.68-10.04,56.49-19.41-4.72,30.89-15.98,60.87-32.84,87.97-2.02-.33-4.12-.15-6.05,.55-13.94-13.72-28.73-25.53-44.25-35.41,.2-1.01,.31-2.05,.31-3.12,0-2.63-.65-5.12-1.8-7.3Zm57.86-94.81c9.57,12.19,18.41,25.58,26.4,40.17-16.6,10.14-36,17.08-56.93,20.84-.11-.21-.23-.41-.35-.61,11.7-18.37,20.64-38.34,26.62-59.22,1.49-.2,2.92-.61,4.26-1.19Zm-5.98-59.58c-.08,9.65-.81,19.26-2.16,28.74-1.44,.15-2.82,.49-4.12,1-19.42-19.71-40.97-35.49-63.9-47.34,.01-.07,.03-.14,.04-.21,21.65-3.66,44.74-4.82,69.26-3.47,.64,7.11,.93,14.21,.87,21.29Zm-271.63-27.6C212.81,35.31,261.77,8.75,316.27,10.59c47.53,1.6,89.58,21.01,119.73,51.86,2.77,2.83,5.43,5.76,8,8.78-23.3-.98-45.35,.27-66.16,3.75-2.75-6.16-8.93-10.46-16.12-10.46-5.97,0-11.25,2.97-14.44,7.51-54.35-18.85-113.89-17.58-169.72,3.63Zm114.83,42.47c17.05-10.84,35.47-19.28,55.27-25.32,3.22,4.25,8.32,6.99,14.06,6.99,4.75,0,9.05-1.88,12.22-4.92,21.82,11.25,42.37,26.23,60.91,44.94-1.43,2.41-2.26,5.23-2.26,8.23,0,5.93,3.2,11.12,7.98,13.92-5.66,19.48-14.03,38.11-24.93,55.29-.79-.15-1.61-.23-2.45-.23-6.04,0-11.11,4.12-12.57,9.7-13.7,.86-27.82,.47-42.04-1.17-41.73-4.81-84.25-20.38-119.78-46.73,.63-1.72,.97-3.58,.97-5.52,0-2.58-.61-5.03-1.69-7.19,16.25-19.3,34.35-35.29,54.29-47.98Zm-71.76,71.02c.98,.19,1.99,.28,3.02,.28,3.13,0,6.06-.89,8.53-2.44,37.14,27.65,81.61,43.99,125.22,49.01,14.83,1.71,29.58,2.11,43.92,1.2-3.72,4.6-7.64,9.04-11.73,13.3-1.9-.81-3.99-1.27-6.19-1.27-4.18,0-7.97,1.63-10.79,4.29-55.63-26.56-116.39-29.36-176.33-14.26-.77-1.08-1.62-2.08-2.56-3.01,8.18-17.13,17.14-32.84,26.91-47.13Zm1.3,116.48c-2.15,0-4.2,.42-6.07,1.18-8.75-11.8-16.23-24.35-22.21-37.46,4.28-4.22,6.94-10.08,6.94-16.57,0-1.24-.1-2.46-.29-3.65,56.68-13.98,114.38-11.52,167.54,13.79-.09,.67-.13,1.35-.13,2.03,0,1.67,.26,3.28,.75,4.79-29.85,23.65-67.26,40.12-111.01,45.68-6.52,.83-13.19,1.41-19.99,1.74-2-6.67-8.19-11.54-15.51-11.54Zm50.17,55.08c-13.18-9.06-25.36-19.31-36.3-30.53,.48-.79,.89-1.62,1.23-2.49,7.4-.33,14.64-.96,21.73-1.86,45.71-5.8,84.82-23.01,116.07-47.73,2.47,1.61,5.41,2.55,8.58,2.55,3.78,0,7.25-1.34,9.96-3.56,14.83,9.47,28.97,20.77,42.32,33.91-1.11,3.3-.73,6.97,1.04,9.97-6.23,8.27-13.03,16.19-20.35,23.7-18.12,18.58-39.47,34.62-63.6,47.12-2.29-2-5.29-3.2-8.57-3.2-3.46,0-6.61,1.35-8.94,3.54-22.64-7.5-43.95-18.19-63.15-31.41Zm99.65,99.9l-100.35-32.13c22.72-3.22,44.13-9.09,64.02-17.16,2.32,2.1,5.4,3.38,8.77,3.38,4.65,0,8.73-2.43,11.05-6.09,11.39,2.62,23.02,4.47,34.81,5.47-12.45,12.22-17.14,29.55-18.31,46.52Zm70.18-57.02c-25.07,2.38-56.35,.78-80.68-4.41,23.65-12.74,44.67-28.77,62.65-47.2,7.78-7.97,14.98-16.39,21.58-25.19,1.61,.22,3.26,.11,4.83-.32,7.88,8.96,15.44,18.61,22.65,28.96,3.47,36.56-4.71,45.68-31.03,48.15Zm76.98-126.65c-2.84,.34-5.83,.39-8.75,.45-22.91,.44-31.18,8.59-18.24,27.34,2.24,3.22,5.95,6.84,2.77,9.71-3.11,2.81-9.39,6.5-9.42,6.52-5.53,3.32-5.11,5.76-3.28,7.94,2.88,3.44,1.87,4.31-.23,6.63-1.79,1.81-3.91,3.65-5.63,6.31-5.78-7.84-11.76-15.26-17.92-22.28,1.44-3.39,1.24-7.33-.55-10.55,17.18-27.46,28.84-57.81,34.09-89.15,10.24,16.16,27.27,43.07,32.13,51.96,2.38,4.36,1.59,4.35-4.98,5.12Z"/>
  <circle class="cls-4" cx="158.52" cy="360.25" r="21.75" transform="translate(-212.09 492.74) rotate(-85.92)"/>
  <circle class="cls-7" cx="147.52" cy="169.75" r="21.51"/>
</svg>